<svg height="511pt" viewBox="0 -79 511.99913 511" width="511pt" xmlns="http://www.w3.org/2000/svg" xmlns:xlink="http://www.w3.org/1999/xlink"><linearGradient id="linear0" gradientUnits="userSpaceOnUse" x1=".001129" x2="512.001108949" y1="177.165379974" y2="177.165379974"><stop offset="0" stop-color="#80d8ff"/><stop offset="1" stop-color="#ea80fc"/></linearGradient><path d="m492 235.164062h-38.847656c-18.25 0-35.214844-9.050781-45.378906-24.207031l-90.980469-135.703125c-31.382813-46.808594-83.765625-74.753906-140.121094-74.753906h-58.667969c-11.089844 0-20.09375 9.042969-20 20.171875l.492188 57.160156h-39.160156c-9.773438 0-18.121094 7.066407-19.726563 16.710938l-39.332031 236c-2.03125 12.1875 7.367187 23.289062 19.75 23.289062 9.601562 0 18.074218-6.933593 19.707031-16.714843l36.546875-219.285157h22.390625v215.996094c0 11.046875 8.953125 20 20 20s20-8.953125 20-20v-215.996094h38c15.089844 0 29.261719 6.3125 39.332031 17.1875v198.808594c0 11.046875 8.953125 20 20 20 11.042969 0 20-8.953125 20-20v-140.300781l58.265625 87.03125c30.714844 45.878906 82.015625 73.269531 137.226563 73.269531h40.503906c11.046875 0 20-8.953125 20-20v-78.664063c0-11.046874-8.953125-20-20-20zm-20 78.664063h-20.5c-41.839844 0-80.714844-20.753906-103.992188-55.523437l-93.003906-138.914063c-17.421875-26.023437-46.519531-41.558594-77.832031-41.558594h-38.171875l-.320312-37.332031h38.492187c42.992187 0 82.957031 21.320312 106.898437 57.03125l90.980469 135.699219c17.605469 26.257812 46.988281 41.933593 78.601563 41.933593h18.851562v38.664063zm0 0" fill="url(#linear0)"/></svg>