<?xml version="1.0" standalone="no"?><svg xmlns="http://www.w3.org/2000/svg" viewBox="0 0 1440 320"><path fill="#0099ff" fill-opacity="1" d="M0,320L21.8,309.3C43.6,299,87,277,131,250.7C174.5,224,218,192,262,154.7C305.5,117,349,75,393,53.3C436.4,32,480,32,524,74.7C567.3,117,611,203,655,245.3C698.2,288,742,288,785,256C829.1,224,873,160,916,128C960,96,1004,96,1047,106.7C1090.9,117,1135,139,1178,154.7C1221.8,171,1265,181,1309,160C1352.7,139,1396,85,1418,58.7L1440,32L1440,320L1418.2,320C1396.4,320,1353,320,1309,320C1265.5,320,1222,320,1178,320C1134.5,320,1091,320,1047,320C1003.6,320,960,320,916,320C872.7,320,829,320,785,320C741.8,320,698,320,655,320C610.9,320,567,320,524,320C480,320,436,320,393,320C349.1,320,305,320,262,320C218.2,320,175,320,131,320C87.3,320,44,320,22,320L0,320Z"></path></svg>