<?xml version="1.0" standalone="no"?><svg xmlns="http://www.w3.org/2000/svg" viewBox="0 0 1440 320"><path fill="#1a5f82" fill-opacity="1" d="M0,224L30,229.3C60,235,120,245,180,218.7C240,192,300,128,360,106.7C420,85,480,107,540,133.3C600,160,660,192,720,224C780,256,840,288,900,272C960,256,1020,192,1080,154.7C1140,117,1200,107,1260,117.3C1320,128,1380,160,1410,176L1440,192L1440,320L1410,320C1380,320,1320,320,1260,320C1200,320,1140,320,1080,320C1020,320,960,320,900,320C840,320,780,320,720,320C660,320,600,320,540,320C480,320,420,320,360,320C300,320,240,320,180,320C120,320,60,320,30,320L0,320Z"></path></svg>