<?xml version="1.0" standalone="no"?><svg xmlns="http://www.w3.org/2000/svg" viewBox="0 0 1440 320"><path fill="#61a1c1" fill-opacity="1" d="M0,128L30,160C60,192,120,256,180,266.7C240,277,300,235,360,192C420,149,480,107,540,80C600,53,660,43,720,69.3C780,96,840,160,900,202.7C960,245,1020,267,1080,240C1140,213,1200,139,1260,106.7C1320,75,1380,85,1410,90.7L1440,96L1440,320L1410,320C1380,320,1320,320,1260,320C1200,320,1140,320,1080,320C1020,320,960,320,900,320C840,320,780,320,720,320C660,320,600,320,540,320C480,320,420,320,360,320C300,320,240,320,180,320C120,320,60,320,30,320L0,320Z"></path></svg>