<?xml version="1.0" standalone="no"?><svg xmlns="http://www.w3.org/2000/svg" viewBox="0 0 1440 320"><path fill="#61a1c1" fill-opacity="1" d="M0,32L40,64C80,96,160,160,240,208C320,256,400,288,480,261.3C560,235,640,149,720,144C800,139,880,213,960,218.7C1040,224,1120,160,1200,122.7C1280,85,1360,75,1400,69.3L1440,64L1440,320L1400,320C1360,320,1280,320,1200,320C1120,320,1040,320,960,320C880,320,800,320,720,320C640,320,560,320,480,320C400,320,320,320,240,320C160,320,80,320,40,320L0,320Z"></path></svg>